<?xml version="1.0" encoding="UTF-8" standalone="no"?>
<svg
   xmlns:dc="http://purl.org/dc/elements/1.1/"
   xmlns:cc="http://creativecommons.org/ns#"
   xmlns:rdf="http://www.w3.org/1999/02/22-rdf-syntax-ns#"
   xmlns:svg="http://www.w3.org/2000/svg"
   xmlns="http://www.w3.org/2000/svg"
   xmlns:sodipodi="http://sodipodi.sourceforge.net/DTD/sodipodi-0.dtd"
   xmlns:inkscape="http://www.inkscape.org/namespaces/inkscape"
   inkscape:version="1.0 (5b275a35d9, 2020-05-03)"
   sodipodi:docname="delete-24px-red.svg"
   xml:space="preserve"
   style="enable-background:new 0 0 24 24;"
   viewBox="0 0 24 24"
   y="0px"
   x="0px"
   id="Layer_1"
   version="1.1"><metadata
   id="metadata65"><rdf:RDF><cc:Work
       rdf:about=""><dc:format>image/svg+xml</dc:format><dc:type
         rdf:resource="http://purl.org/dc/dcmitype/StillImage" /><dc:title></dc:title></cc:Work></rdf:RDF></metadata><defs
   id="defs63" /><sodipodi:namedview
   inkscape:current-layer="Layer_1"
   inkscape:window-maximized="1"
   inkscape:window-y="27"
   inkscape:window-x="71"
   inkscape:cy="12"
   inkscape:cx="12"
   inkscape:zoom="35.333333"
   showgrid="false"
   id="namedview61"
   inkscape:window-height="1025"
   inkscape:window-width="1849"
   inkscape:pageshadow="2"
   inkscape:pageopacity="0"
   guidetolerance="10"
   gridtolerance="10"
   objecttolerance="10"
   borderopacity="1"
   bordercolor="#666666"
   pagecolor="#ffffff" />
<style
   id="style54"
   type="text/css">
	.st0{fill:none;}
	.st1{fill:#993333;}
</style>
<path
   id="path56"
   d="M0,0h24v24H0V0z"
   class="st0" />
<path
   id="path58"
   d="M6,19c0,1.1,0.9,2,2,2h8c1.1,0,2-0.9,2-2V9c0-1.1-0.9-2-2-2H8C6.9,7,6,7.9,6,9V19z M18,4h-2.5l-0.7-0.7  C14.6,3.1,14.4,3,14.1,3H9.9C9.6,3,9.4,3.1,9.2,3.3L8.5,4H6C5.4,4,5,4.4,5,5s0.4,1,1,1h12c0.5,0,1-0.4,1-1S18.5,4,18,4z"
   class="st1" />
</svg>
